# Blender v2.79 (sub 0) OBJ File: 'pokemon_center.blend'
# www.blender.org
mtllib little_pc.mtl
o Cube.035
v 2.953721 8.760937 -5.713093
v 2.953721 6.257185 -5.713093
v -1.500116 8.760937 -5.876822
v -1.500116 6.257185 -5.876822
v 3.039922 8.760937 -5.807856
v 3.039922 6.257185 -5.807856
v -1.413914 8.760937 -5.971584
v -1.413914 6.257185 -5.971584
v -1.413914 6.264142 -5.971584
v -1.413914 8.760937 -5.971584
v 3.039922 8.760937 -5.807856
v 3.039922 6.264142 -5.807856
v -0.926931 6.547974 -6.123980
v -0.926931 8.477104 -6.123980
v 2.606363 8.477104 -5.994091
v 2.606363 6.547974 -5.994091
v 2.953721 6.245094 -5.713093
v -1.500116 6.259014 -5.876822
v -1.005673 8.481640 -5.858645
v 2.459278 8.481640 -5.731270
v -1.005673 6.535219 -5.858645
v 2.459278 6.524390 -5.731270
vn 0.0367 0.0000 -0.9993
vn 0.7397 0.0000 0.6729
vn 0.0000 0.0000 1.0000
vn -0.7397 0.0000 -0.6729
vn 0.0000 -1.0000 -0.0000
vn 0.0000 1.0000 0.0000
vn -0.0315 0.5142 0.8571
vn -0.0367 0.0000 0.9993
vn 1.0000 0.0000 0.0000
vn 0.2987 0.0000 0.9544
vn -0.3947 0.0000 0.9188
vn -0.0315 -0.5142 0.8571
usemtl Material.001
s off
f 3//1 1//1 20//1 19//1
f 3//2 18//2 4//2 8//2 7//2
f 6//3 5//3 11//3 12//3
f 5//4 6//4 2//4 17//4 1//4
f 3//5 7//5 5//5 1//5
f 8//6 4//6 2//6 6//6
f 9//7 12//7 16//7 13//7
f 5//3 7//3 10//3 11//3
f 8//8 6//8 12//8 9//8
f 7//9 8//9 9//9 10//9
f 14//8 13//8 16//8 15//8
f 10//10 9//10 13//10 14//10
f 12//11 11//11 15//11 16//11
f 11//12 10//12 14//12 15//12
f 18//1 3//1 19//1 21//1
f 17//1 18//1 21//1 22//1
f 1//1 17//1 22//1 20//1
o Cube.034
v -1.005673 8.481640 -5.858645
v 2.459278 8.481640 -5.731270
v -1.005673 6.535219 -5.858645
v 2.459278 6.524390 -5.731270
vn 0.0367 0.0000 -0.9993
usemtl Material.018
s off
f 24//13 26//13 25//13 23//13
o Cube.031
v 8.963161 3.205438 -4.491179
v 7.762453 3.205438 -4.554036
v 7.762453 2.240947 -4.554036
v 8.963161 2.235581 -4.491179
vn 0.0523 0.0000 -0.9986
usemtl Material.018
s off
f 27//14 30//14 29//14 28//14
o Cube.030
v 9.096025 2.019657 -4.484224
v 7.629590 2.019657 -4.560991
v 9.096025 2.128263 -4.484224
v 7.629590 2.134816 -4.560991
v 9.061095 2.019657 -3.816995
v 7.594661 2.019657 -3.893762
v 9.061095 2.128263 -3.816995
v 7.594661 2.134816 -3.893762
vt 0.000000 0.000000
vt 0.000000 0.000000
vt 0.000000 0.000000
vt 0.000000 0.000000
vt 0.000000 0.000000
vt 0.000000 0.000000
vt 0.000000 0.000000
vt 0.000000 0.000000
vt 0.999933 0.455002
vt 0.000069 0.455006
vt 0.000067 0.000071
vt 0.999931 0.000067
vn 0.0523 0.0000 -0.9986
vn 0.9986 0.0000 0.0523
vn -0.9986 0.0000 -0.0523
vn -0.0045 -1.0000 -0.0002
usemtl Material.017
s off
f 37/1/15 35/2/15 36/3/15 38/4/15
f 32/5/16 34/6/16 38/4/16 36/3/16
f 33/7/17 31/8/17 35/2/17 37/1/17
f 34/9/18 33/10/18 37/11/18 38/12/18
o Cube.029
v 3.490576 2.358368 -4.245973
v 3.490576 2.358368 -3.103569
v 3.490576 1.441966 -4.245973
v 3.490576 1.436868 -3.103569
vn 1.0000 0.0000 0.0000
usemtl Material.018
s off
f 40//19 42//19 41//19 39//19
o Cube.026
v -5.118022 1.945434 1.078880
v -5.004479 1.942237 -1.000000
v 5.071430 1.945434 1.078880
v 4.958712 1.942237 -1.000000
v 7.044155 1.945434 -0.966539
v 7.044155 1.945434 1.078880
v 4.958712 1.942237 -5.902519
v 7.044155 1.945434 -5.980393
v -7.053600 1.945434 1.078880
v -7.053600 1.945434 -0.966539
v -5.004479 1.942237 -5.946824
v -7.053600 1.945434 -6.025703
v -5.118022 1.657494 1.078880
v -5.004479 1.660691 -1.000000
v 4.958712 1.660691 -1.000000
v 5.071430 1.657494 1.078880
v 7.044155 1.657494 -0.966539
v 7.044155 1.657494 1.078880
v 4.958712 1.660691 -5.902519
v 7.044155 1.657494 -5.980393
v -7.053600 1.657494 1.078880
v -7.053600 1.657494 -0.966539
v -5.004479 1.660691 -5.946824
v -7.053600 1.657494 -6.025703
vn 0.0000 0.0000 -1.0000
vn 0.0000 0.0000 1.0000
vn 0.0000 1.0000 -0.0015
vn 1.0000 0.0000 0.0000
vn -0.0008 1.0000 -0.0008
vn -0.0373 0.0000 -0.9993
vn -0.0015 1.0000 0.0000
vn -1.0000 0.0000 0.0000
vn 0.0008 1.0000 -0.0008
vn 0.0016 1.0000 0.0000
vn 0.0385 0.0000 -0.9993
usemtl Material
s off
f 56//20 44//20 46//20 57//20
f 58//21 45//21 43//21 55//21
f 46//22 44//22 43//22 45//22
f 59//23 47//23 48//23 60//23
f 46//24 45//24 48//24 47//24
f 61//25 49//25 50//25 62//25
f 46//26 47//26 50//26 49//26
f 57//27 46//27 49//27 61//27
f 63//27 51//27 52//27 64//27
f 55//21 43//21 51//21 63//21
f 43//28 44//28 52//28 51//28
f 64//27 52//27 54//27 66//27
f 52//29 44//29 53//29 54//29
f 44//23 56//23 65//23 53//23
f 53//30 65//30 66//30 54//30
f 47//23 59//23 62//23 50//23
f 45//21 58//21 60//21 48//21
o Cube.007_Cube.008
v 9.096025 3.312757 -4.484224
v 9.096025 2.019657 -4.484224
v 7.629590 3.312757 -4.560991
v 7.629590 2.019657 -4.560991
v 9.137164 3.312757 -5.270099
v 9.137164 2.019657 -5.270099
v 7.670730 3.312757 -5.346866
v 7.670730 2.019657 -5.346866
v 7.670730 2.019657 -5.346866
v 7.670730 3.312757 -5.346866
v 9.137164 3.312757 -5.270099
v 9.137164 2.019657 -5.270099
v 7.836057 2.153290 -5.602201
v 7.836057 3.179124 -5.602201
v 8.999401 3.179124 -5.541301
v 8.999401 2.153290 -5.541301
v 9.096025 2.128263 -4.484224
v 7.629590 2.134816 -4.560991
v 9.061095 2.019657 -3.816995
v 7.594661 2.019657 -3.893762
v 8.963161 3.205438 -4.491179
v 7.762453 3.205438 -4.554036
v 9.096025 -0.005546 -4.484224
v 7.629590 -0.005546 -4.560991
v 7.670730 -0.005546 -5.346866
v 9.137164 -0.005546 -5.270099
v 9.061095 -0.005546 -3.816995
v 7.594661 -0.005546 -3.893762
v 7.762453 2.240947 -4.554036
v 8.963161 2.235581 -4.491179
vn 0.0523 0.0000 -0.9986
vn 0.9986 0.0000 0.0523
vn 0.0000 0.0000 1.0000
vn -0.9986 0.0000 -0.0523
vn 0.0000 -1.0000 -0.0000
vn -0.0236 0.8920 0.4515
vn -0.0523 0.0000 0.9986
vn 0.8394 0.0000 0.5435
vn -0.8916 0.0000 0.4529
vn -0.0236 -0.8920 0.4515
vn 0.0000 1.0000 0.0000
usemtl Material.001
s off
f 83//31 84//31 95//31 96//31
f 69//32 84//32 70//32 74//32 73//32
f 72//33 71//33 77//33 78//33
f 71//34 72//34 68//34 83//34 67//34
f 69//35 73//35 71//35 67//35
f 74//32 70//32 90//32 91//32
f 75//36 78//36 82//36 79//36
f 71//33 73//33 76//33 77//33
f 74//33 72//33 78//33 75//33
f 73//33 74//33 75//33 76//33
f 80//37 79//37 82//37 81//37
f 76//38 75//38 79//38 80//38
f 78//39 77//39 81//39 82//39
f 77//40 76//40 80//40 81//40
f 68//34 72//34 92//34 89//34
f 84//31 69//31 88//31 95//31
f 69//31 67//31 87//31 88//31
f 67//31 83//31 96//31 87//31
f 91//41 90//41 89//41 92//41
f 89//41 90//41 94//41 93//41
f 85//34 68//34 89//34 93//34
f 86//31 85//31 93//31 94//31
f 72//37 74//37 91//37 92//37
f 70//32 86//32 94//32 90//32
o Cube.006_Cube.007
v -2.934907 1.697574 -5.571456
v -4.089934 1.697574 -5.571456
v -2.695693 1.167312 -1.770099
v -2.934907 1.697574 -1.778576
v -4.089934 1.697574 -1.778576
v -4.329147 1.167312 -1.770099
v -2.695693 1.170053 -5.567018
v -2.934907 1.700316 -5.575495
v -3.512420 1.717121 -5.579006
v -4.089934 1.700315 -5.575495
v -4.329147 1.170053 -5.567018
vn -0.0000 -0.0185 -0.9998
vn -0.9115 0.4112 0.0003
vn 0.9115 0.4112 0.0003
vn 0.0000 -1.0000 0.0000
vn 0.0000 0.0160 0.9999
usemtl None
s off
f 106//42 105//42 104//42 103//42 107//42
f 102//43 101//43 106//43 107//43
f 100//44 99//44 103//44 104//44
f 101//45 98//45 97//45 100//45
f 101//46 102//46 99//46 100//46
o Cube.005_Cube.006
v -4.882154 -0.163868 -1.503001
v -4.882154 1.167430 -1.503001
v -4.882154 -0.163868 -5.820176
v -4.882154 1.167430 -5.820176
v -2.133698 -0.163868 -1.503001
v -2.133698 1.167430 -1.503001
v -2.133698 -0.163868 -5.820176
v -2.133698 1.167430 -5.820176
v -2.695693 1.167312 -1.770099
v -4.329147 1.167312 -1.770099
v -2.695693 1.170053 -5.567018
v -4.329147 1.170053 -5.567018
vn -1.0000 0.0000 0.0000
vn 0.0000 0.0000 -1.0000
vn 1.0000 0.0000 0.0000
vn 0.0000 0.0000 1.0000
vn 0.0000 -1.0000 0.0000
vn 0.0000 1.0000 0.0000
vn -0.0000 -1.0000 -0.0007
usemtl None
s off
f 108//47 109//47 111//47 110//47
f 110//48 111//48 115//48 114//48
f 114//49 115//49 113//49 112//49
f 112//50 113//50 109//50 108//50
f 110//51 114//51 112//51 108//51
f 115//52 111//52 109//52 113//52
f 116//53 117//53 119//53 118//53
o Cube.004_Cube.005
v 3.490576 2.489865 -2.940549
v 3.490576 1.196766 -2.940549
v 3.490576 2.489865 -4.408992
v 3.490576 1.196766 -4.408992
v 4.277527 2.489865 -2.940549
v 4.277527 1.196766 -2.940549
v 4.277527 2.489865 -4.408992
v 4.277527 1.196766 -4.408992
v 4.277527 1.196766 -4.408992
v 4.277527 2.489865 -4.408992
v 4.277527 2.489865 -2.940549
v 4.277527 1.196766 -2.940549
v 4.541156 1.330398 -4.257239
v 4.541156 2.356232 -4.257239
v 4.541156 2.356232 -3.092302
v 4.541156 1.330398 -3.092302
v 3.490576 1.305371 -2.940549
v 3.490576 1.311925 -4.408992
v 3.490576 2.358368 -4.245973
v 3.490576 2.358368 -3.103569
v 3.490576 1.441966 -4.245973
v 3.490576 1.436868 -3.103569
vn 1.0000 -0.0000 0.0000
vn 0.0000 0.0000 1.0000
vn 0.0000 0.0000 -1.0000
vn 0.0000 -1.0000 0.0000
vn 0.0000 1.0000 0.0000
vn -0.4521 0.8920 0.0000
vn -1.0000 0.0000 0.0000
vn -0.4989 0.0000 0.8667
vn -0.4989 0.0000 -0.8667
vn -0.4521 -0.8920 0.0000
usemtl Material.001
s off
f 122//54 120//54 139//54 138//54
f 122//55 137//55 123//55 127//55 126//55
f 125//55 124//55 130//55 131//55
f 124//56 125//56 121//56 136//56 120//56
f 122//57 126//57 124//57 120//57
f 127//58 123//58 121//58 125//58
f 128//59 131//59 135//59 132//59
f 124//55 126//55 129//55 130//55
f 127//55 125//55 131//55 128//55
f 126//55 127//55 128//55 129//55
f 133//60 132//60 135//60 134//60
f 129//61 128//61 132//61 133//61
f 131//62 130//62 134//62 135//62
f 130//63 129//63 133//63 134//63
f 137//54 122//54 138//54 140//54
f 136//54 137//54 140//54 141//54
f 120//54 136//54 141//54 139//54
o Cube.003_Cube.004
v 3.454927 1.196766 -2.940549
v 3.454927 1.196766 -4.408992
v 3.454927 1.305371 -2.940549
v 3.454927 1.311925 -4.408992
v 3.454927 1.305371 -2.697154
v 3.454927 1.196766 -2.697154
v 3.454927 1.196766 -4.676989
v 3.454927 1.311925 -4.676989
v 2.791403 1.305371 -2.697154
v 2.791403 1.196766 -2.697154
v 2.791403 1.196766 -4.676989
v 2.791403 1.311925 -4.676989
vt 0.000000 0.000000
vt 0.000000 0.000000
vt 0.000000 0.000000
vt 0.000000 0.000000
vt 0.000000 0.000000
vt 0.000000 0.000000
vt 0.000000 0.000000
vt 0.000000 0.000000
vt 0.000000 0.000000
vt 0.000000 0.000000
vt 0.000000 0.000000
vt 0.000000 0.000000
vt 0.999942 0.335159
vt 0.000058 0.335159
vt 0.000058 0.000058
vt 0.999942 0.000058
vn 0.0000 0.0000 1.0000
vn -1.0000 0.0000 0.0000
vn 1.0000 0.0059 0.0000
vn 0.0000 -1.0000 0.0000
vn 1.0000 0.0000 0.0000
vn 0.0000 0.0000 -1.0000
vn 0.0000 -1.0000 -0.0033
vn 0.0000 1.0000 0.0000
usemtl Material.017
s off
f 148/13/64 149/14/64 153/15/64 152/16/64
f 143/17/65 145/18/65 149/14/65 148/13/65
f 144/19/65 142/20/65 147/21/65 146/22/65
f 145/18/66 144/19/66 146/22/66 149/14/66
f 142/20/67 143/17/67 148/13/67 147/21/67
f 153/15/68 150/23/68 151/24/68 152/16/68
f 146/22/69 147/21/69 151/24/69 150/23/69
f 149/25/70 146/26/70 150/27/70 153/28/70
f 147/21/71 148/13/71 152/16/71 151/24/71
o Cube.002_Cube.003
v -2.151208 1.167312 -5.562979
v -2.423450 1.171308 -5.313011
v -2.695693 1.167312 -5.562979
v -2.423450 1.163316 -5.812946
v -2.549898 2.051083 -5.577107
v -2.742403 1.878325 -5.324314
v -2.934907 1.697574 -5.571456
v -2.742403 1.870332 -5.824250
v -3.512420 2.171180 -5.328996
v -3.512420 1.917216 -5.574967
v -3.512420 2.163188 -5.828931
v -4.474943 2.051082 -5.577107
v -4.282438 1.878324 -5.324313
v -4.089934 1.697574 -5.571456
v -4.282438 1.870332 -5.824250
v -4.873632 1.167312 -5.562979
v -4.601390 1.171308 -5.313011
v -4.329147 1.167312 -5.562979
v -4.601390 1.163316 -5.812947
v -2.151208 1.167312 -1.770099
v -2.423450 1.171308 -1.520131
v -2.695693 1.167312 -1.770099
v -2.423450 1.163316 -2.020067
v -2.549898 2.051083 -1.784227
v -2.742403 1.878325 -1.531434
v -2.934907 1.697574 -1.778576
v -2.742403 1.870332 -2.031370
v -3.512420 2.417152 -1.790079
v -3.512420 2.171180 -1.536116
v -3.512420 1.714380 -1.782087
v -3.512420 2.163188 -2.036051
v -4.474943 2.051082 -1.784227
v -4.282438 1.878324 -1.531433
v -4.089934 1.697574 -1.778576
v -4.282438 1.870332 -2.031370
v -4.873632 1.167312 -1.770099
v -4.601390 1.171308 -1.520131
v -4.329147 1.167312 -1.770099
v -4.601390 1.163316 -2.020067
v -3.512420 2.830964 -5.588432
v -4.474943 2.464894 -5.582581
v -4.282438 2.292136 -5.329786
v -2.742403 2.292136 -5.329787
v -3.512420 2.584992 -5.334469
v -2.549898 2.464895 -5.582581
v -3.512420 2.577000 -5.834404
v -4.282438 2.284144 -5.829723
v -2.742403 2.284144 -5.829723
vn 0.6763 0.7366 0.0008
vn -0.6469 -0.2805 0.7091
vn -0.6469 -0.3030 -0.6997
vn 0.6469 0.2805 -0.7091
vn 0.7929 0.0081 0.6093
vn -0.2597 -0.6718 0.6937
vn -0.2597 -0.6937 -0.6718
vn 0.7917 -0.0081 -0.6108
vn -0.7929 0.0081 0.6093
vn 0.2597 -0.6718 0.6937
vn 0.2597 -0.6937 -0.6718
vn -0.0010 0.0132 0.9999
vn -0.9115 0.4112 0.0000
vn 0.6469 -0.2805 0.7091
vn 0.6469 -0.3030 -0.6997
vn -0.6469 0.2805 -0.7091
vn 0.6469 0.3030 0.6997
vn -0.6763 -0.7366 -0.0008
vn 0.2597 0.6937 0.6718
vn -0.1381 -0.5795 0.8032
vn -0.1333 -0.6011 -0.7880
vn 0.2597 0.6718 -0.6937
vn -0.2597 0.6937 0.6718
vn 0.1381 -0.5795 0.8032
vn 0.1333 -0.6011 -0.7880
vn -0.2597 0.6718 -0.6937
vn -0.6469 0.3030 0.6997
vn -0.6763 0.7366 0.0008
vn -0.9115 -0.4112 0.0000
vn -0.0010 -0.0132 -0.9999
vn 0.0010 -0.0132 -0.9999
vn 0.0011 0.0132 0.9999
vn -0.7917 -0.0081 -0.6108
usemtl Material.001
s off
f 166//72 165//72 185//72 188//72
f 155//73 159//73 160//73 156//73
f 156//74 160//74 161//74 157//74
f 157//75 161//75 158//75 154//75
f 159//76 158//76 198//76 196//76
f 159//77 162//77 163//77 160//77
f 160//78 163//78 164//78 161//78
f 158//79 161//79 201//79 198//79
f 165//80 166//80 195//80 194//80
f 162//81 166//81 167//81 163//81
f 163//82 167//82 168//82 164//82
f 162//83 159//83 196//83 197//83
f 189//84 185//84 165//84 169//84
f 166//85 170//85 171//85 167//85
f 167//86 171//86 172//86 168//86
f 168//87 172//87 169//87 165//87
f 173//88 177//88 178//88 174//88
f 174//73 178//73 179//73 175//73
f 175//74 179//74 180//74 176//74
f 188//89 166//89 167//89 187//89
f 177//90 181//90 182//90 178//90
f 178//91 182//91 183//91 179//91
f 179//92 183//92 184//92 180//92
f 180//93 184//93 181//93 177//93
f 181//94 185//94 186//94 182//94
f 182//95 186//95 187//95 183//95
f 183//96 187//96 188//96 184//96
f 184//97 188//97 185//97 181//97
f 185//98 189//98 190//98 186//98
f 186//85 190//85 191//85 187//85
f 187//86 191//86 192//86 188//86
f 159//99 180//99 177//99 158//99
f 154//100 173//100 177//100 158//100
f 180//99 159//99 160//99 179//99
f 198//90 193//90 197//90 196//90
f 201//93 199//93 193//93 198//93
f 193//94 194//94 195//94 197//94
f 199//97 200//97 194//97 193//97
f 164//101 168//101 200//101 199//101
f 161//102 164//102 199//102 201//102
f 166//103 162//103 197//103 195//103
f 168//104 165//104 194//104 200//104
o Cube.001_Cube.002
v 2.693871 -0.163868 -1.503001
v 2.693871 1.167430 -1.503001
v 2.693871 -0.163868 -5.820176
v 2.693871 1.167430 -5.820176
v 4.693871 -0.163868 -1.503001
v 4.693871 1.167430 -1.503001
v 4.693871 -0.163868 -5.820176
v 4.693871 1.167430 -5.820176
vn -1.0000 0.0000 0.0000
vn 0.0000 0.0000 -1.0000
vn 1.0000 0.0000 0.0000
vn 0.0000 0.0000 1.0000
vn 0.0000 -1.0000 0.0000
vn 0.0000 1.0000 0.0000
usemtl Material.014
s off
f 202//105 203//105 205//105 204//105
f 204//106 205//106 209//106 208//106
f 208//107 209//107 207//107 206//107
f 206//108 207//108 203//108 202//108
f 204//109 208//109 206//109 202//109
f 209//110 205//110 203//110 207//110
o Cube_Cube.001
v -5.004479 -0.057763 1.000000
v -5.004479 -0.057763 -1.000000
v 4.958712 -0.057763 1.000000
v 4.958712 -0.057763 -1.000000
v 6.887631 -0.057763 -1.000000
v 6.887631 -0.057763 1.000000
v 4.958712 -0.057763 -5.902519
v 6.887631 -0.057763 -5.902519
v -6.897077 -0.057763 -1.000000
v -6.897077 -0.057763 1.000000
v -5.004479 -0.057763 -5.946824
v -6.897077 -0.057763 -5.946824
v -5.004479 1.660691 1.000000
v -5.004479 1.660691 -1.000000
v 4.958712 1.660691 -1.000000
v 4.958712 1.660691 1.000000
v 6.887631 1.660691 -1.000000
v 6.887631 1.660691 1.000000
v 4.958712 1.660691 -5.902519
v 6.887631 1.660691 -5.902519
v -6.897077 1.660691 1.000000
v -6.897077 1.660691 -1.000000
v -5.004479 1.660691 -5.946824
v -6.897077 1.660691 -5.946824
vn 0.0000 -1.0000 0.0000
vn 0.0000 0.0000 -1.0000
vn -1.0000 0.0000 0.0000
vn 0.0000 0.0000 1.0000
vn 1.0000 0.0000 0.0000
usemtl Material.001
s off
f 211//111 210//111 219//111 218//111
f 225//112 227//112 215//112 212//112
f 211//111 213//111 212//111 210//111
f 212//111 213//111 214//111 215//111
f 214//111 213//111 216//111 217//111
f 226//113 229//113 217//113 214//113
f 211//111 218//111 221//111 220//111
f 232//114 233//114 221//114 220//114
f 223//113 232//113 220//113 211//113
f 218//115 221//115 233//115 231//115
f 210//112 219//112 230//112 222//112
f 219//115 218//115 231//115 230//115
f 213//115 216//115 228//115 224//115
f 216//114 217//114 229//114 228//114
f 214//113 215//113 227//113 226//113
f 212//112 210//112 222//112 225//112
f 211//114 213//114 224//114 223//114
